<mxfile host="app.diagrams.net" modified="2024-01-02T19:26:58.112Z" agent="Mozilla/5.0 (Windows NT 10.0; Win64; x64) AppleWebKit/537.36 (KHTML, like Gecko) Chrome/120.0.0.0 Safari/537.36 Edg/120.0.0.0" etag="ysdKQEnaxkDzLHdBs0lf" version="22.1.16" type="github">
  <diagram name="Page-1" id="cMrX50yQtDMuLtWBUuMw">
    <mxGraphModel dx="1423" dy="773" grid="1" gridSize="10" guides="1" tooltips="1" connect="1" arrows="1" fold="1" page="1" pageScale="1" pageWidth="850" pageHeight="1100" math="0" shadow="0">
      <root>
        <mxCell id="0" />
        <mxCell id="1" parent="0" />
        <mxCell id="wanejJTsM05DdPmCtUpI-31" value="" style="shape=image;html=1;verticalAlign=top;verticalLabelPosition=bottom;labelBackgroundColor=#ffffff;imageAspect=0;aspect=fixed;image=https://cdn4.iconfinder.com/data/icons/developer-set-3/128/arrowupdown-128.png;direction=south;" vertex="1" parent="1">
          <mxGeometry x="120" y="187" width="50" height="50" as="geometry" />
        </mxCell>
        <mxCell id="wanejJTsM05DdPmCtUpI-1" value="" style="shape=actor;whiteSpace=wrap;html=1;" vertex="1" parent="1">
          <mxGeometry x="40" y="182" width="40" height="50" as="geometry" />
        </mxCell>
        <mxCell id="wanejJTsM05DdPmCtUpI-2" value="" style="sketch=0;points=[[0,0,0],[0.25,0,0],[0.5,0,0],[0.75,0,0],[1,0,0],[0,1,0],[0.25,1,0],[0.5,1,0],[0.75,1,0],[1,1,0],[0,0.25,0],[0,0.5,0],[0,0.75,0],[1,0.25,0],[1,0.5,0],[1,0.75,0]];outlineConnect=0;fontColor=#232F3E;fillColor=#ED7100;strokeColor=#ffffff;dashed=0;verticalLabelPosition=bottom;verticalAlign=top;align=center;html=1;fontSize=12;fontStyle=0;aspect=fixed;shape=mxgraph.aws4.resourceIcon;resIcon=mxgraph.aws4.lambda;" vertex="1" parent="1">
          <mxGeometry x="40" y="362" width="40" height="40" as="geometry" />
        </mxCell>
        <mxCell id="wanejJTsM05DdPmCtUpI-8" style="edgeStyle=orthogonalEdgeStyle;rounded=0;orthogonalLoop=1;jettySize=auto;html=1;" edge="1" parent="1" source="wanejJTsM05DdPmCtUpI-6">
          <mxGeometry relative="1" as="geometry">
            <mxPoint x="65" y="352" as="targetPoint" />
          </mxGeometry>
        </mxCell>
        <mxCell id="wanejJTsM05DdPmCtUpI-6" value="payment &lt;br&gt;confirmation module" style="text;html=1;align=center;verticalAlign=middle;resizable=0;points=[];autosize=1;strokeColor=none;fillColor=none;" vertex="1" parent="1">
          <mxGeometry y="272" width="130" height="40" as="geometry" />
        </mxCell>
        <mxCell id="wanejJTsM05DdPmCtUpI-7" style="edgeStyle=orthogonalEdgeStyle;rounded=0;orthogonalLoop=1;jettySize=auto;html=1;exitX=0.5;exitY=1;exitDx=0;exitDy=0;entryX=0.477;entryY=-0.035;entryDx=0;entryDy=0;entryPerimeter=0;" edge="1" parent="1" source="wanejJTsM05DdPmCtUpI-1" target="wanejJTsM05DdPmCtUpI-6">
          <mxGeometry relative="1" as="geometry" />
        </mxCell>
        <mxCell id="wanejJTsM05DdPmCtUpI-9" value="User" style="text;html=1;align=center;verticalAlign=middle;resizable=0;points=[];autosize=1;strokeColor=none;fillColor=none;" vertex="1" parent="1">
          <mxGeometry x="30" y="140" width="50" height="30" as="geometry" />
        </mxCell>
        <mxCell id="wanejJTsM05DdPmCtUpI-61" style="edgeStyle=orthogonalEdgeStyle;rounded=0;orthogonalLoop=1;jettySize=auto;html=1;entryX=0;entryY=0.5;entryDx=0;entryDy=0;entryPerimeter=0;" edge="1" parent="1" source="wanejJTsM05DdPmCtUpI-10" target="wanejJTsM05DdPmCtUpI-21">
          <mxGeometry relative="1" as="geometry">
            <mxPoint x="590" y="282" as="targetPoint" />
          </mxGeometry>
        </mxCell>
        <mxCell id="wanejJTsM05DdPmCtUpI-10" value="" style="sketch=0;points=[[0,0,0],[0.25,0,0],[0.5,0,0],[0.75,0,0],[1,0,0],[0,1,0],[0.25,1,0],[0.5,1,0],[0.75,1,0],[1,1,0],[0,0.25,0],[0,0.5,0],[0,0.75,0],[1,0.25,0],[1,0.5,0],[1,0.75,0]];outlineConnect=0;fontColor=#232F3E;fillColor=#ED7100;strokeColor=#ffffff;dashed=0;verticalLabelPosition=bottom;verticalAlign=top;align=center;html=1;fontSize=12;fontStyle=0;aspect=fixed;shape=mxgraph.aws4.resourceIcon;resIcon=mxgraph.aws4.lambda;" vertex="1" parent="1">
          <mxGeometry x="320" y="262" width="40" height="40" as="geometry" />
        </mxCell>
        <mxCell id="wanejJTsM05DdPmCtUpI-11" value="&lt;font style=&quot;font-size: 9px;&quot;&gt;payment &lt;br&gt;scheduling module&lt;/font&gt;" style="text;html=1;align=center;verticalAlign=middle;resizable=0;points=[];autosize=1;strokeColor=none;fillColor=none;" vertex="1" parent="1">
          <mxGeometry x="290" y="212" width="100" height="40" as="geometry" />
        </mxCell>
        <mxCell id="wanejJTsM05DdPmCtUpI-16" value="" style="sketch=0;points=[[0,0,0],[0.25,0,0],[0.5,0,0],[0.75,0,0],[1,0,0],[0,1,0],[0.25,1,0],[0.5,1,0],[0.75,1,0],[1,1,0],[0,0.25,0],[0,0.5,0],[0,0.75,0],[1,0.25,0],[1,0.5,0],[1,0.75,0]];outlineConnect=0;fontColor=#232F3E;fillColor=#ED7100;strokeColor=#ffffff;dashed=0;verticalLabelPosition=bottom;verticalAlign=top;align=center;html=1;fontSize=12;fontStyle=0;aspect=fixed;shape=mxgraph.aws4.resourceIcon;resIcon=mxgraph.aws4.lambda;" vertex="1" parent="1">
          <mxGeometry x="609.5" y="640" width="40" height="40" as="geometry" />
        </mxCell>
        <mxCell id="wanejJTsM05DdPmCtUpI-20" value="&lt;font style=&quot;font-size: 9px;&quot;&gt;payment &lt;br&gt;processing module&lt;/font&gt;" style="text;html=1;align=center;verticalAlign=middle;resizable=0;points=[];autosize=1;strokeColor=none;fillColor=none;" vertex="1" parent="1">
          <mxGeometry x="579.5" y="680" width="100" height="40" as="geometry" />
        </mxCell>
        <mxCell id="wanejJTsM05DdPmCtUpI-21" value="" style="outlineConnect=0;dashed=0;verticalLabelPosition=bottom;verticalAlign=top;align=center;html=1;shape=mxgraph.aws3.sqs;fillColor=#D9A741;gradientColor=none;" vertex="1" parent="1">
          <mxGeometry x="600" y="262" width="40" height="46" as="geometry" />
        </mxCell>
        <mxCell id="wanejJTsM05DdPmCtUpI-23" value="" style="outlineConnect=0;dashed=0;verticalLabelPosition=bottom;verticalAlign=top;align=center;html=1;shape=mxgraph.aws3.dynamo_db;fillColor=#2E73B8;gradientColor=none;" vertex="1" parent="1">
          <mxGeometry x="200" y="192" width="50" height="60" as="geometry" />
        </mxCell>
        <mxCell id="wanejJTsM05DdPmCtUpI-28" style="edgeStyle=orthogonalEdgeStyle;rounded=0;orthogonalLoop=1;jettySize=auto;html=1;entryX=0.5;entryY=1;entryDx=0;entryDy=0;entryPerimeter=0;" edge="1" parent="1" source="wanejJTsM05DdPmCtUpI-2" target="wanejJTsM05DdPmCtUpI-23">
          <mxGeometry relative="1" as="geometry" />
        </mxCell>
        <mxCell id="wanejJTsM05DdPmCtUpI-33" value="Object Storage for metadata" style="text;html=1;align=center;verticalAlign=middle;resizable=0;points=[];autosize=1;strokeColor=none;fillColor=none;" vertex="1" parent="1">
          <mxGeometry x="140" y="147" width="170" height="30" as="geometry" />
        </mxCell>
        <mxCell id="wanejJTsM05DdPmCtUpI-40" value="" style="sketch=0;points=[[0,0,0],[0.25,0,0],[0.5,0,0],[0.75,0,0],[1,0,0],[0,1,0],[0.25,1,0],[0.5,1,0],[0.75,1,0],[1,1,0],[0,0.25,0],[0,0.5,0],[0,0.75,0],[1,0.25,0],[1,0.5,0],[1,0.75,0]];outlineConnect=0;fontColor=#232F3E;fillColor=#ED7100;strokeColor=#ffffff;dashed=0;verticalLabelPosition=bottom;verticalAlign=top;align=center;html=1;fontSize=12;fontStyle=0;aspect=fixed;shape=mxgraph.aws4.resourceIcon;resIcon=mxgraph.aws4.lambda;" vertex="1" parent="1">
          <mxGeometry x="600" y="352" width="40" height="40" as="geometry" />
        </mxCell>
        <mxCell id="wanejJTsM05DdPmCtUpI-41" style="edgeStyle=orthogonalEdgeStyle;rounded=0;orthogonalLoop=1;jettySize=auto;html=1;entryX=0.5;entryY=0;entryDx=0;entryDy=0;entryPerimeter=0;" edge="1" parent="1" source="wanejJTsM05DdPmCtUpI-21" target="wanejJTsM05DdPmCtUpI-40">
          <mxGeometry relative="1" as="geometry" />
        </mxCell>
        <mxCell id="wanejJTsM05DdPmCtUpI-48" style="edgeStyle=orthogonalEdgeStyle;rounded=0;orthogonalLoop=1;jettySize=auto;html=1;" edge="1" parent="1" source="wanejJTsM05DdPmCtUpI-42" target="wanejJTsM05DdPmCtUpI-46">
          <mxGeometry relative="1" as="geometry" />
        </mxCell>
        <mxCell id="wanejJTsM05DdPmCtUpI-42" value="Email / mobile&lt;br&gt;&amp;nbsp;confirmation module" style="text;html=1;align=center;verticalAlign=middle;resizable=0;points=[];autosize=1;strokeColor=none;fillColor=none;" vertex="1" parent="1">
          <mxGeometry x="555" y="395" width="130" height="40" as="geometry" />
        </mxCell>
        <mxCell id="wanejJTsM05DdPmCtUpI-44" value="" style="outlineConnect=0;dashed=0;verticalLabelPosition=bottom;verticalAlign=top;align=center;html=1;shape=mxgraph.aws3.ses;fillColor=#D9A741;gradientColor=none;" vertex="1" parent="1">
          <mxGeometry x="470" y="462" width="60" height="60" as="geometry" />
        </mxCell>
        <mxCell id="wanejJTsM05DdPmCtUpI-60" style="edgeStyle=orthogonalEdgeStyle;rounded=0;orthogonalLoop=1;jettySize=auto;html=1;" edge="1" parent="1" source="wanejJTsM05DdPmCtUpI-45">
          <mxGeometry relative="1" as="geometry">
            <mxPoint x="630" y="640" as="targetPoint" />
          </mxGeometry>
        </mxCell>
        <mxCell id="wanejJTsM05DdPmCtUpI-45" value="Simple Email Service" style="text;html=1;align=center;verticalAlign=middle;resizable=0;points=[];autosize=1;strokeColor=none;fillColor=none;" vertex="1" parent="1">
          <mxGeometry x="440" y="532" width="140" height="30" as="geometry" />
        </mxCell>
        <mxCell id="wanejJTsM05DdPmCtUpI-46" value="" style="sketch=0;points=[[0,0,0],[0.25,0,0],[0.5,0,0],[0.75,0,0],[1,0,0],[0,1,0],[0.25,1,0],[0.5,1,0],[0.75,1,0],[1,1,0],[0,0.25,0],[0,0.5,0],[0,0.75,0],[1,0.25,0],[1,0.5,0],[1,0.75,0]];outlineConnect=0;fontColor=#232F3E;fillColor=#E7157B;strokeColor=#ffffff;dashed=0;verticalLabelPosition=bottom;verticalAlign=top;align=center;html=1;fontSize=12;fontStyle=0;aspect=fixed;shape=mxgraph.aws4.resourceIcon;resIcon=mxgraph.aws4.sns;" vertex="1" parent="1">
          <mxGeometry x="700" y="462" width="54" height="54" as="geometry" />
        </mxCell>
        <mxCell id="wanejJTsM05DdPmCtUpI-47" style="edgeStyle=orthogonalEdgeStyle;rounded=0;orthogonalLoop=1;jettySize=auto;html=1;entryX=0.58;entryY=0;entryDx=0;entryDy=0;entryPerimeter=0;" edge="1" parent="1" source="wanejJTsM05DdPmCtUpI-42" target="wanejJTsM05DdPmCtUpI-44">
          <mxGeometry relative="1" as="geometry" />
        </mxCell>
        <mxCell id="wanejJTsM05DdPmCtUpI-53" style="edgeStyle=orthogonalEdgeStyle;rounded=0;orthogonalLoop=1;jettySize=auto;html=1;" edge="1" parent="1" source="wanejJTsM05DdPmCtUpI-49">
          <mxGeometry relative="1" as="geometry">
            <mxPoint x="630" y="640" as="targetPoint" />
            <Array as="points">
              <mxPoint x="631" y="550" />
            </Array>
          </mxGeometry>
        </mxCell>
        <mxCell id="wanejJTsM05DdPmCtUpI-49" value="Simlpe Notification&lt;br&gt;service" style="text;html=1;align=center;verticalAlign=middle;resizable=0;points=[];autosize=1;strokeColor=none;fillColor=none;" vertex="1" parent="1">
          <mxGeometry x="667" y="530" width="120" height="40" as="geometry" />
        </mxCell>
        <mxCell id="wanejJTsM05DdPmCtUpI-55" style="edgeStyle=orthogonalEdgeStyle;rounded=0;orthogonalLoop=1;jettySize=auto;html=1;" edge="1" parent="1" source="wanejJTsM05DdPmCtUpI-50">
          <mxGeometry relative="1" as="geometry">
            <mxPoint x="220" y="460" as="targetPoint" />
          </mxGeometry>
        </mxCell>
        <mxCell id="wanejJTsM05DdPmCtUpI-50" value="" style="sketch=0;outlineConnect=0;fontColor=#232F3E;gradientColor=none;fillColor=#7AA116;strokeColor=none;dashed=0;verticalLabelPosition=bottom;verticalAlign=top;align=center;html=1;fontSize=12;fontStyle=0;aspect=fixed;pointerEvents=1;shape=mxgraph.aws4.bucket;" vertex="1" parent="1">
          <mxGeometry x="600" y="800" width="75" height="78" as="geometry" />
        </mxCell>
        <mxCell id="wanejJTsM05DdPmCtUpI-51" value="amazon s3 bucket&lt;br&gt;" style="text;html=1;align=center;verticalAlign=middle;resizable=0;points=[];autosize=1;strokeColor=none;fillColor=none;" vertex="1" parent="1">
          <mxGeometry x="569.5" y="770" width="120" height="30" as="geometry" />
        </mxCell>
        <mxCell id="wanejJTsM05DdPmCtUpI-58" style="edgeStyle=orthogonalEdgeStyle;rounded=0;orthogonalLoop=1;jettySize=auto;html=1;" edge="1" parent="1" source="wanejJTsM05DdPmCtUpI-56">
          <mxGeometry relative="1" as="geometry">
            <mxPoint x="225" y="390" as="targetPoint" />
          </mxGeometry>
        </mxCell>
        <mxCell id="wanejJTsM05DdPmCtUpI-56" value="transaction id and status" style="text;html=1;align=center;verticalAlign=middle;resizable=0;points=[];autosize=1;strokeColor=none;fillColor=none;" vertex="1" parent="1">
          <mxGeometry x="150" y="430" width="150" height="30" as="geometry" />
        </mxCell>
        <mxCell id="wanejJTsM05DdPmCtUpI-59" value="Message Queue for&amp;nbsp;&lt;br&gt;processing the transaction alert system&lt;br&gt;" style="text;html=1;align=center;verticalAlign=middle;resizable=0;points=[];autosize=1;strokeColor=none;fillColor=none;" vertex="1" parent="1">
          <mxGeometry x="514.5" y="212" width="230" height="40" as="geometry" />
        </mxCell>
        <mxCell id="wanejJTsM05DdPmCtUpI-62" style="edgeStyle=orthogonalEdgeStyle;rounded=0;orthogonalLoop=1;jettySize=auto;html=1;entryX=0.499;entryY=0.082;entryDx=0;entryDy=0;entryPerimeter=0;" edge="1" parent="1" source="wanejJTsM05DdPmCtUpI-20" target="wanejJTsM05DdPmCtUpI-51">
          <mxGeometry relative="1" as="geometry" />
        </mxCell>
      </root>
    </mxGraphModel>
  </diagram>
</mxfile>
